#N canvas 61 22 1280 751 10;
#X obj 88 457 *~;
#X obj 87 295 noise~;
#X obj 191 788 dac~ 1 2 3 4;
#X obj 269 193 metro;
#X floatatom 304 166 5 0 0 0 - - -, f 5;
#X obj 269 166 tgl 15 0 empty empty empty 0 -6 0 8 -262144 -1 -1 1
1;
#X obj 308 235 del;
#X obj 154 357 line~;
#X obj 154 381 abs~;
#X obj 153 409 *~ -1;
#X obj 152 433 +~ 1;
#X obj 211 458 *~;
#X obj 277 358 line~;
#X obj 277 382 abs~;
#X obj 276 410 *~ -1;
#X obj 275 434 +~ 1;
#X obj 320 459 *~;
#X obj 386 359 line~;
#X obj 386 383 abs~;
#X obj 385 411 *~ -1;
#X obj 384 435 +~ 1;
#X obj 422 459 *~;
#X obj 488 359 line~;
#X obj 488 383 abs~;
#X obj 487 411 *~ -1;
#X obj 382 261 del;
#X obj 401 231 / 4;
#X obj 485 287 del;
#X obj 504 257 / 4;
#X obj 154 308 f;
#X obj 277 309 f;
#X obj 386 310 f;
#X obj 488 312 f;
#X text 359 161 speed;
#X text 546 373 creates back and forth movement;
#X text 547 395 between 0 and 1;
#X obj 286 128 hsl 128 15 0 2000 0 0 empty empty empty -2 -8 0 10 -262144
-1 -1 9100 1;
#X obj 444 194 / 2;
#X obj 327 205 / 4;
#X obj 486 435 +~ 2;
#X text 557 489 3.9.3.1. Spatial Quadro;
#X obj 830 17 vsl 50 128 0 0.1 0 0 empty empty empty 0 -9 0 10 -260097
-1 -1 0 1;
#X text 611 526 www.pd-tutorial.com;
#X text 699 489 Johannes Kreidler;
#X obj 87 323 *~ 0.2;
#X obj 969 631 +~;
#X obj 968 583 +~;
#X obj 968 608 +~;
#X obj 1092 566 +~;
#X obj 969 662 +~;
#X obj 970 685 +~;
#X obj 968 562 +~;
#X obj 1199 708 osc~ 493.883;
#X obj 1168 480 +~;
#X obj 1079 478 +~;
#X obj 977 450 +~;
#X text 1101 399 comment;
#X obj 939 480 +~;
#X obj 894 458 +~;
#X obj 939 511 +~;
#X obj 969 540 +~;
#X obj 1115 695 osc~ 379.91;
#X obj 1196 602 osc~ 292.238;
#X obj 1096 598 osc~ 224.798;
#X obj 1181 519 osc~ 172.922;
#X obj 1093 519 osc~ 133.017;
#X obj 1169 428 osc~ 102.321;
#X obj 1079 407 osc~ 78.708;
#X obj 977 389 osc~ 60.544;
#X obj 894 389 osc~ 46.572;
#X obj 1115 734 +~;
#X obj 1196 656 +~;
#X obj 1095 656 +~;
#X obj 1182 568 +~;
#X obj 1198 752 +~;
#X obj 909 422 osc~ 47;
#X obj 992 423 osc~ 61;
#X obj 1184 450 osc~ 103;
#X obj 1108 538 osc~ 134;
#X obj 1196 542 osc~ 173;
#X obj 1113 620 osc~ 225;
#X obj 1212 625 osc~ 293;
#X obj 1134 715 osc~ 380;
#X obj 1212 728 osc~ 494;
#X obj 1094 439 osc~ 79;
#X text 867 339 Babel [493.883 hz/ 1.3];
#N canvas 876 177 375 255 startup 0;
#X obj 22 24 loadbang;
#X obj 22 48 bng 15 250 50 0 empty empty empty 0 -6 0 8 -262144 -1
-1;
#X obj 22 67 f \$0;
#X text 35 195 This subpatch loads initial;
#X text 31 219 values in number boxes.;
#X msg 22 91 \; \$1-pole 80;
#X connect 0 0 1 0;
#X connect 1 0 2 0;
#X connect 2 0 5 0;
#X restore 737 786 pd startup;
#N canvas 189 75 660 424 chord 0;
#X obj 87 97 -~ 0.5;
#X obj 87 146 clip~ -0.5 0.5;
#X obj 87 169 cos~;
#X obj 91 315 outlet~;
#X obj 221 97 -~ 0.5;
#X obj 221 146 clip~ -0.5 0.5;
#X obj 221 169 cos~;
#X obj 356 100 -~ 0.5;
#X obj 356 149 clip~ -0.5 0.5;
#X obj 356 172 cos~;
#X obj 491 100 -~ 0.5;
#X obj 491 149 clip~ -0.5 0.5;
#X obj 491 172 cos~;
#X text 147 32 test sound for phaser;
#X obj 91 285 *~ 0.3;
#X obj 87 122 *~ 1;
#X obj 221 122 *~ 1;
#X obj 356 125 *~ 1;
#X obj 491 125 *~ 1;
#X obj 91 252 hip~ 3;
#X obj 87 74 phasor~ 79;
#X obj 221 74 phasor~ 81;
#X obj 356 77 phasor~ 83;
#X obj 491 77 phasor~ 85;
#X connect 0 0 15 0;
#X connect 1 0 2 0;
#X connect 2 0 19 0;
#X connect 4 0 16 0;
#X connect 5 0 6 0;
#X connect 6 0 19 0;
#X connect 7 0 17 0;
#X connect 8 0 9 0;
#X connect 9 0 19 0;
#X connect 10 0 18 0;
#X connect 11 0 12 0;
#X connect 12 0 19 0;
#X connect 14 0 3 0;
#X connect 15 0 1 0;
#X connect 16 0 5 0;
#X connect 17 0 8 0;
#X connect 18 0 11 0;
#X connect 19 0 14 0;
#X connect 20 0 0 0;
#X connect 21 0 4 0;
#X connect 22 0 7 0;
#X connect 23 0 10 0;
#X restore 487 496 pd chord;
#X obj 509 550 rpole~;
#X obj 509 525 rzero_rev~;
#X obj 509 599 rpole~;
#X obj 509 574 rzero_rev~;
#X obj 509 647 rpole~;
#X obj 509 622 rzero_rev~;
#X obj 509 696 rpole~;
#X obj 509 671 rzero_rev~;
#X obj 486 726 +~;
#X obj 664 642 phasor~ 0.3;
#X obj 664 674 expr~ 1 - 0.03 - 0.6*abs($v1-0.5)*abs($v1-0.5);
#X text 565 463 CORPUS INMATERIAL \, Miguel Oliveros et al. Madrid
2014;
#X floatatom 647 158 5 0 0 0 - - -, f 5;
#X obj 647 176 osc~ \$1;
#X obj 651 134 hsl 128 15 0 127 0 0 empty empty empty -2 -8 0 10 -262144
-1 -1 0 1;
#X obj 657 212 *~;
#X msg 154 334 -1 \, 1 \$1;
#X msg 277 335 -1 \, 1 \$1;
#X msg 386 336 -1 \, 1 \$1;
#X msg 488 336 -1 \, 1 \$1;
#X obj 959 714 *~ 0.01;
#X obj 378 655 *~ 0.01;
#X obj -548 -281 adc~;
#N canvas 0 22 796 453 (subpatch) 0;
#X array array1 100 float 3;
#A 0 0.00141819 0.0020436 0.0025879 0.00277122 0.0027805 0.00289539
0.00298217 0.00273724 0.00219436 0.00175399 0.00158014 0.00128792 0.00059204
-0.000215696 -0.000646358 -0.000458267 0.000168122 0.000863745 0.00147295
0.00204056 0.00265426 0.00330298 0.00375901 0.00385361 0.00369136 0.00340269
0.0030793 0.00292719 0.00320552 0.00397864 0.00483231 0.00505118 0.00426016
0.00269012 0.000918594 -0.000376549 -0.000720072 -0.000297421 0.000324366
0.000937711 0.00158664 0.00209535 0.00209836 0.0013867 0.000140182
-0.00109841 -0.00171118 -0.0015319 -0.000943713 -0.000404518 -0.00017478
-0.000319464 -0.000682976 -0.00100909 -0.00116568 -0.00114827 -0.000983845
-0.000747859 -0.000461626 1.09643e-05 0.000711213 0.00141894 0.00192241
0.00221857 0.0023602 0.0024397 0.00250894 0.0024112 0.00215625 0.00200825
0.00214694 0.00251563 0.0026693 0.0021836 0.00118682 7.13397e-05 -0.000772422
-0.00114045 -0.00128291 -0.00141038 -0.00139236 -0.0011911 -0.000927519
-0.000761036 -0.00087458 -0.00131743 -0.00193977 -0.00252831 -0.00296202
-0.00332365 -0.00369157 -0.00380996 -0.00339927 -0.00253731 -0.00148598
-0.000605683 -0.000322224 -0.000737265 -0.00138189 -0.00149104;
#X coords 0 1 99 -1 200 140 1;
#X restore -304 -326 graph;
#X obj -412 -237 tabwrite~ array1;
#X obj -412 -279 bng 15 250 50 0 empty empty empty 17 7 0 10 -262144
-1 -1;
#X obj -557 -149 threshold~ 1 3000 0.1 1000;
#X text -346 -259 msec.;
#X obj -412 -258 metro 160;
#X msg -451 -28 print;
#X msg -557 -66 freeze \$1;
#X msg -547 -8 bypass \$1;
#X obj -546 -27 tgl 15 0 empty empty empty 0 -6 0 8 -262144 -1 -1 0
1;
#X obj -557 -86 tgl 15 0 empty empty empty 0 -6 0 8 -262144 -1 -1 1
1;
#X text -475 -105 msec.;
#X obj -205 -2 fiddle~;
#X obj -205 50 moses 60;
#X obj -469 91 bng 15 250 50 0 empty empty empty 17 7 0 10 -262144
-1 -1;
#X obj -396 92 bng 15 250 50 0 empty empty empty 17 7 0 10 -262144
-1 -1;
#X floatatom -205 22 5 0 0 0 - - -, f 5;
#X msg -469 156 freeze \$1;
#X obj -469 137 tgl 15 0 empty empty empty 0 -6 0 8 -262144 -1 -1 0
1;
#X msg -396 157 freeze \$1;
#X obj -396 138 tgl 15 0 empty empty empty 0 -6 0 8 -262144 -1 -1 0
1;
#X obj -469 115 metro 3500;
#X obj -396 114 metro 3500;
#X obj -557 -126 bng 15 250 50 0 empty empty empty 17 7 0 10 -262144
-1 -1;
#X obj -557 -106 metro 2500;
#X obj -322 90 bng 15 250 50 0 empty empty empty 17 7 0 10 -262144
-1 -1;
#X obj -249 91 bng 15 250 50 0 empty empty empty 17 7 0 10 -262144
-1 -1;
#X msg -322 155 freeze \$1;
#X obj -322 136 tgl 15 0 empty empty empty 0 -6 0 8 -262144 -1 -1 1
1;
#X msg -249 156 freeze \$1;
#X obj -249 137 tgl 15 0 empty empty empty 0 -6 0 8 -262144 -1 -1 0
1;
#X obj -322 114 metro 1500;
#X obj -249 113 metro 1500;
#X obj -505 183 bng 15 250 50 0 empty empty empty 17 7 0 10 -262144
-1 -1;
#X obj -432 184 bng 15 250 50 0 empty empty empty 17 7 0 10 -262144
-1 -1;
#X msg -505 248 freeze \$1;
#X obj -505 229 tgl 15 0 empty empty empty 0 -6 0 8 -262144 -1 -1 1
1;
#X msg -432 249 freeze \$1;
#X obj -432 230 tgl 15 0 empty empty empty 0 -6 0 8 -262144 -1 -1 1
1;
#X obj -505 207 metro 5000;
#X obj -432 206 metro 5000;
#X obj -330 188 bng 15 250 50 0 empty empty empty 17 7 0 10 -262144
-1 -1;
#X obj -257 189 bng 15 250 50 0 empty empty empty 17 7 0 10 -262144
-1 -1;
#X msg -330 253 freeze \$1;
#X obj -330 234 tgl 15 0 empty empty empty 0 -6 0 8 -262144 -1 -1 1
1;
#X msg -257 254 freeze \$1;
#X obj -257 235 tgl 15 0 empty empty empty 0 -6 0 8 -262144 -1 -1 0
1;
#X obj -330 212 metro 1000;
#X obj -257 211 metro 1000;
#X floatatom -156 23 5 0 0 0 - - -, f 5;
#X floatatom -108 23 5 0 0 0 - - -, f 5;
#X floatatom -56 21 5 0 0 0 - - -, f 5;
#X obj -88 91 bng 15 250 50 0 empty empty empty 17 7 0 10 -262144 -1
-1;
#X msg -88 156 freeze \$1;
#X obj -88 137 tgl 15 0 empty empty empty 0 -6 0 8 -262144 -1 -1 1
1;
#X obj -96 189 bng 15 250 50 0 empty empty empty 17 7 0 10 -262144
-1 -1;
#X msg -96 254 freeze \$1;
#X obj -96 235 tgl 15 0 empty empty empty 0 -6 0 8 -262144 -1 -1 0
1;
#X obj -96 211 metro 1000;
#X obj -158 93 bng 15 250 50 0 empty empty empty 17 7 0 10 -262144
-1 -1;
#X msg -158 158 freeze \$1;
#X obj -158 139 tgl 15 0 empty empty empty 0 -6 0 8 -262144 -1 -1 1
1;
#X obj -166 191 bng 15 250 50 0 empty empty empty 17 7 0 10 -262144
-1 -1;
#X msg -166 256 freeze \$1;
#X obj -166 237 tgl 15 0 empty empty empty 0 -6 0 8 -262144 -1 -1 1
1;
#X obj -166 213 metro 1000;
#X obj -158 115 metro 5000;
#X obj -88 113 metro 5000;
#X obj 60 91 bng 15 250 50 0 empty empty empty 17 7 0 10 -262144 -1
-1;
#X msg 60 156 freeze \$1;
#X obj 60 137 tgl 15 0 empty empty empty 0 -6 0 8 -262144 -1 -1 0 1
;
#X obj 52 189 bng 15 250 50 0 empty empty empty 17 7 0 10 -262144 -1
-1;
#X msg 52 254 freeze \$1;
#X obj 52 235 tgl 15 0 empty empty empty 0 -6 0 8 -262144 -1 -1 0 1
;
#X obj 52 211 metro 1000;
#X obj -10 93 bng 15 250 50 0 empty empty empty 17 7 0 10 -262144 -1
-1;
#X msg -10 158 freeze \$1;
#X obj -10 139 tgl 15 0 empty empty empty 0 -6 0 8 -262144 -1 -1 1
1;
#X obj -18 191 bng 15 250 50 0 empty empty empty 17 7 0 10 -262144
-1 -1;
#X msg -18 256 freeze \$1;
#X obj -18 237 tgl 15 0 empty empty empty 0 -6 0 8 -262144 -1 -1 1
1;
#X obj -18 213 metro 1000;
#X obj -10 115 metro 6000;
#X obj 60 113 metro 6000;
#X obj -558 -177 *~ 1;
#X text -407 19 D♭ Midi number: 38 \, 50 \, 62 \, 74>>;
#X connect 0 0 2 0;
#X connect 3 0 6 0;
#X connect 3 0 29 0;
#X connect 4 0 3 1;
#X connect 4 0 26 0;
#X connect 4 0 28 0;
#X connect 4 0 37 0;
#X connect 4 0 38 0;
#X connect 5 0 3 0;
#X connect 6 0 25 0;
#X connect 6 0 30 0;
#X connect 6 0 31 0;
#X connect 6 0 32 0;
#X connect 7 0 8 0;
#X connect 8 0 9 0;
#X connect 9 0 10 0;
#X connect 10 0 0 1;
#X connect 11 0 2 1;
#X connect 12 0 13 0;
#X connect 13 0 14 0;
#X connect 14 0 15 0;
#X connect 15 0 11 1;
#X connect 16 0 2 2;
#X connect 17 0 18 0;
#X connect 18 0 19 0;
#X connect 19 0 20 0;
#X connect 20 0 16 1;
#X connect 21 0 2 3;
#X connect 22 0 23 0;
#X connect 23 0 24 0;
#X connect 24 0 39 0;
#X connect 25 0 27 0;
#X connect 26 0 25 1;
#X connect 28 0 27 1;
#X connect 29 0 104 0;
#X connect 30 0 105 0;
#X connect 31 0 106 0;
#X connect 32 0 107 0;
#X connect 36 0 4 0;
#X connect 37 0 32 1;
#X connect 37 0 31 1;
#X connect 37 0 30 1;
#X connect 37 0 29 1;
#X connect 38 0 6 1;
#X connect 39 0 21 1;
#X connect 41 0 103 1;
#X connect 44 0 0 0;
#X connect 44 0 11 0;
#X connect 44 0 16 1;
#X connect 44 0 21 0;
#X connect 45 0 49 0;
#X connect 46 0 47 0;
#X connect 47 0 45 0;
#X connect 48 0 51 1;
#X connect 49 0 50 0;
#X connect 50 0 108 0;
#X connect 51 0 46 0;
#X connect 52 0 74 0;
#X connect 53 0 60 1;
#X connect 54 0 59 1;
#X connect 55 0 57 1;
#X connect 57 0 59 0;
#X connect 58 0 57 0;
#X connect 59 0 60 0;
#X connect 60 0 51 0;
#X connect 61 0 70 0;
#X connect 62 0 71 0;
#X connect 63 0 72 0;
#X connect 64 0 73 0;
#X connect 65 0 48 0;
#X connect 66 0 53 0;
#X connect 67 0 54 0;
#X connect 68 0 55 0;
#X connect 69 0 58 0;
#X connect 70 0 49 1;
#X connect 71 0 45 1;
#X connect 72 0 47 1;
#X connect 73 0 46 1;
#X connect 74 0 50 1;
#X connect 75 0 58 1;
#X connect 76 0 55 1;
#X connect 77 0 53 1;
#X connect 78 0 48 1;
#X connect 79 0 73 1;
#X connect 80 0 72 1;
#X connect 81 0 71 1;
#X connect 82 0 70 1;
#X connect 83 0 74 1;
#X connect 84 0 54 1;
#X connect 87 0 89 0;
#X connect 87 0 96 0;
#X connect 88 0 91 0;
#X connect 89 0 88 0;
#X connect 90 0 93 0;
#X connect 91 0 90 0;
#X connect 92 0 95 0;
#X connect 93 0 92 0;
#X connect 94 0 96 1;
#X connect 95 0 94 0;
#X connect 96 0 109 0;
#X connect 97 0 98 0;
#X connect 98 0 89 1;
#X connect 98 0 88 1;
#X connect 98 0 91 1;
#X connect 98 0 90 1;
#X connect 98 0 93 1;
#X connect 98 0 92 1;
#X connect 98 0 95 1;
#X connect 98 0 94 1;
#X connect 100 0 101 0;
#X connect 101 0 103 0;
#X connect 102 0 100 0;
#X connect 103 0 0 0;
#X connect 103 0 11 0;
#X connect 103 0 16 0;
#X connect 103 0 21 0;
#X connect 104 0 7 0;
#X connect 105 0 12 0;
#X connect 106 0 17 0;
#X connect 107 0 22 0;
#X connect 108 0 21 0;
#X connect 108 0 16 0;
#X connect 108 0 11 0;
#X connect 108 0 0 0;
#X connect 109 0 0 0;
#X connect 109 0 11 0;
#X connect 109 0 16 0;
#X connect 109 0 21 0;
#X connect 110 0 123 0;
#X connect 110 0 195 0;
#X connect 113 0 116 0;
#X connect 114 0 134 0;
#X connect 116 0 112 0;
#X connect 120 0 119 0;
#X connect 121 0 118 0;
#X connect 123 0 127 0;
#X connect 123 1 160 0;
#X connect 123 2 161 0;
#X connect 123 3 162 0;
#X connect 124 0 125 0;
#X connect 124 0 136 0;
#X connect 124 0 170 0;
#X connect 124 0 186 0;
#X connect 124 1 126 0;
#X connect 124 1 137 0;
#X connect 124 1 163 0;
#X connect 124 1 179 0;
#X connect 125 0 132 0;
#X connect 125 0 144 0;
#X connect 126 0 133 0;
#X connect 126 0 145 0;
#X connect 127 0 124 0;
#X connect 129 0 128 0;
#X connect 131 0 130 0;
#X connect 132 0 129 0;
#X connect 133 0 131 0;
#X connect 134 0 135 0;
#X connect 134 0 120 0;
#X connect 135 0 121 0;
#X connect 136 0 142 0;
#X connect 136 0 152 0;
#X connect 137 0 143 0;
#X connect 137 0 153 0;
#X connect 139 0 138 0;
#X connect 141 0 140 0;
#X connect 142 0 139 0;
#X connect 143 0 141 0;
#X connect 144 0 150 0;
#X connect 145 0 151 0;
#X connect 147 0 146 0;
#X connect 149 0 148 0;
#X connect 150 0 147 0;
#X connect 151 0 149 0;
#X connect 152 0 158 0;
#X connect 153 0 159 0;
#X connect 155 0 154 0;
#X connect 157 0 156 0;
#X connect 158 0 155 0;
#X connect 159 0 157 0;
#X connect 163 0 166 0;
#X connect 163 0 178 0;
#X connect 165 0 164 0;
#X connect 166 0 169 0;
#X connect 168 0 167 0;
#X connect 169 0 168 0;
#X connect 170 0 173 0;
#X connect 170 0 177 0;
#X connect 172 0 171 0;
#X connect 173 0 176 0;
#X connect 175 0 174 0;
#X connect 176 0 175 0;
#X connect 177 0 172 0;
#X connect 178 0 165 0;
#X connect 179 0 182 0;
#X connect 179 0 194 0;
#X connect 181 0 180 0;
#X connect 182 0 185 0;
#X connect 184 0 183 0;
#X connect 185 0 184 0;
#X connect 186 0 189 0;
#X connect 186 0 193 0;
#X connect 188 0 187 0;
#X connect 189 0 192 0;
#X connect 191 0 190 0;
#X connect 192 0 191 0;
#X connect 193 0 188 0;
#X connect 194 0 181 0;
#X connect 195 0 112 0;
#X connect 195 0 114 0;
