#N canvas 1405 23 500 173 10;
#X text -46 77 % mean-cpu-load;
#X text -46 93 % peak-cpu-load;
#X obj -46 18 cnv 15 100 60 empty empty empty 20 12 0 14 -233017 -66577
0;
#X floatatom -43 58 5 0 0 0 - - -;
#X obj -4 41 dsp;
#X obj -4 21 tgl 15 1 empty dsp_tgl empty 8 -8 0 10 -262144 -1 -1 1
1;
#X floatatom 20 58 5 0 0 0 - - -;
#X text 15 20 ON/OFF;
#N canvas 1055 253 867 804 theremin 1;
#X obj 24 63 gemhead;
#X obj 24 86 pix_video;
#X obj 24 566 pix_texture;
#X floatatom 120 182 5 0 0 0 - - -;
#X floatatom 207 210 5 0 0 0 - - -;
#X floatatom 345 253 5 0 0 0 - - -;
#X obj 345 341 +~;
#X obj 186 657 output~;
#X obj 202 348 +~;
#X obj 121 298 +~;
#X obj 213 516 +~;
#X obj 213 481 +~;
#X obj 24 133 pix_blob 4;
#X floatatom 427 248 5 0 0 0 - - -;
#X floatatom 503 262 5 0 0 0 - - -;
#X floatatom 582 267 5 0 0 0 - - -;
#X obj 583 479 +~;
#X obj 504 425 +~;
#X obj 428 356 +~;
#X obj 213 571 +~;
#X obj 213 546 +~;
#X obj 213 593 +~;
#X obj 120 245 osc~ 45.655;
#X obj 207 282 osc~ 73.505;
#X obj 345 319 osc~ 118.344;
#X obj 427 300 osc~ 190.533;
#X obj 503 368 osc~ 306.759;
#X obj 582 419 osc~ 493.883;
#X obj 427 275 * 10;
#X obj 503 336 * 10;
#X obj 582 387 * 10;
#X obj 24 640 rectangle 6 4;
#X msg 223 89 <mode>;
#X msg 225 110 <color-weights>;
#X obj 53 223 * 10;
#X floatatom 52 253 5 0 0 0 - - -;
#X obj 207 250 * 100;
#X obj 24 111 pix_grey;
#X obj 380 11 pix_rgba;
#X obj 217 325 osc~ 150;
#X obj 136 275 osc~ 90;
#X floatatom 60 616 5 0 0 0 - - -;
#X floatatom 99 615 5 0 0 0 - - -;
#X floatatom 87 591 5 0 0 0 - - -;
#X obj 345 292 * 1000;
#X obj 189 629 freeverb~;
#X msg 719 261 roomsize \$1;
#X msg 719 306 damping \$1;
#X msg 719 350 width \$1;
#X msg 719 394 wet \$1;
#X msg 719 438 dry \$1;
#X msg 753 461 print;
#X msg 772 500 freeze \$1;
#X msg 777 537 bypass \$1;
#X obj 777 518 tgl 15 0 empty empty empty 0 -6 0 8 -262144 -1 -1 0
1;
#X obj 772 481 tgl 15 0 empty empty empty 0 -6 0 8 -262144 -1 -1 0
1;
#X obj 731 415 hsl 60 18 0 1 0 1 empty empty dry 2 9 1 12 -225271 -1
-1 2630 0;
#X obj 731 371 hsl 60 18 0 1 0 1 empty empty wet 2 9 1 12 -225271 -1
-1 2630 0;
#X obj 731 327 hsl 60 18 0 1 0 1 empty empty width 2 9 1 12 -262131
-1 -1 1355 0;
#X obj 731 283 hsl 60 18 0 2 0 1 empty empty damping 2 9 1 12 -261689
-1 -1 1315 0;
#X obj 731 238 hsl 60 18 0.11 1.1 0 1 empty empty roomsize 2 9 1 12
-261689 -1 -1 3574 0;
#X floatatom 701 242 3 0 0 0 - - -;
#X floatatom 701 287 3 0 0 0 - - -;
#X floatatom 701 332 3 0 0 0 - - -;
#X floatatom 701 375 3 0 0 0 - - -;
#X floatatom 701 419 3 0 0 0 - - -;
#X floatatom 442 172 5 0 0 0 - - -;
#X obj 443 148 / 3;
#X floatatom 528 177 5 0 0 0 - - -;
#X obj 529 153 / 2;
#X obj 121 213 * 100;
#X connect 0 0 1 0;
#X connect 1 0 37 0;
#X connect 2 0 31 0;
#X connect 2 1 43 0;
#X connect 3 0 34 0;
#X connect 3 0 70 0;
#X connect 4 0 36 0;
#X connect 4 0 42 0;
#X connect 5 0 2 1;
#X connect 5 0 44 0;
#X connect 5 0 56 0;
#X connect 5 0 57 0;
#X connect 6 0 10 1;
#X connect 8 0 11 1;
#X connect 9 0 11 0;
#X connect 10 0 20 0;
#X connect 11 0 10 0;
#X connect 12 0 2 0;
#X connect 12 1 3 0;
#X connect 12 1 13 0;
#X connect 12 1 67 0;
#X connect 12 2 4 0;
#X connect 12 2 14 0;
#X connect 12 2 69 0;
#X connect 12 3 5 0;
#X connect 12 3 15 0;
#X connect 13 0 28 0;
#X connect 14 0 29 0;
#X connect 15 0 30 0;
#X connect 15 0 59 0;
#X connect 16 0 21 1;
#X connect 17 0 19 1;
#X connect 18 0 20 1;
#X connect 19 0 21 0;
#X connect 20 0 19 0;
#X connect 21 0 45 0;
#X connect 21 0 45 1;
#X connect 22 0 9 0;
#X connect 23 0 8 0;
#X connect 24 0 6 0;
#X connect 25 0 18 0;
#X connect 26 0 17 0;
#X connect 27 0 16 0;
#X connect 28 0 25 0;
#X connect 29 0 26 0;
#X connect 30 0 27 0;
#X connect 32 0 12 1;
#X connect 33 0 12 2;
#X connect 34 0 35 0;
#X connect 36 0 23 0;
#X connect 37 0 12 0;
#X connect 39 0 8 1;
#X connect 40 0 9 1;
#X connect 41 0 31 1;
#X connect 42 0 31 2;
#X connect 44 0 24 0;
#X connect 45 0 7 0;
#X connect 45 1 7 1;
#X connect 46 0 45 0;
#X connect 47 0 45 0;
#X connect 48 0 45 0;
#X connect 49 0 45 0;
#X connect 50 0 45 0;
#X connect 51 0 45 0;
#X connect 52 0 45 0;
#X connect 53 0 45 0;
#X connect 54 0 53 0;
#X connect 55 0 52 0;
#X connect 56 0 50 0;
#X connect 56 0 65 0;
#X connect 57 0 49 0;
#X connect 57 0 64 0;
#X connect 58 0 48 0;
#X connect 58 0 63 0;
#X connect 59 0 47 0;
#X connect 59 0 62 0;
#X connect 60 0 46 0;
#X connect 60 0 61 0;
#X connect 66 0 60 0;
#X connect 67 0 66 0;
#X connect 68 0 58 0;
#X connect 69 0 68 0;
#X connect 70 0 22 0;
#X connect 70 0 41 0;
#X restore -41 135 pd theremin;
#X obj 100 42 cnv 15 100 60 empty empty empty 20 12 0 14 -195568 -66577
0;
#N canvas 1352 603 455 304 gemwin 1;
#X obj 132 182 gemwin;
#X obj 67 89 outlet;
#X obj 67 10 inlet;
#X obj 67 41 route create;
#X msg 67 70 set destroy;
#X msg 142 68 set create;
#X msg 198 112 destroy;
#X obj 294 56 gemhead;
#X obj 294 76 world_light;
#X msg 207 155 lighting 1;
#X obj 207 134 loadbang;
#X msg 206 243 create \, dimen 1080 720 \, 1;
#X msg 130 92 create \, dimen 1920 1080 \, 1;
#X connect 2 0 3 0;
#X connect 3 0 4 0;
#X connect 3 0 12 0;
#X connect 3 1 5 0;
#X connect 3 1 6 0;
#X connect 4 0 1 0;
#X connect 5 0 1 0;
#X connect 6 0 0 0;
#X connect 7 0 8 0;
#X connect 9 0 0 0;
#X connect 10 0 9 0;
#X connect 12 0 0 0;
#X restore 115 81 pd gemwin;
#X msg 115 62 create;
#X text 111 41 Create window:;
#X connect 4 0 3 0;
#X connect 4 1 6 0;
#X connect 5 0 4 0;
#X connect 10 0 11 0;
#X connect 11 0 10 0;
